<mxfile host="app.diagrams.net" agent="Mozilla/5.0 (Windows NT 10.0; Win64; x64) AppleWebKit/537.36 (KHTML, like Gecko) Chrome/131.0.0.0 Safari/537.36" version="25.0.3">
  <diagram name="หน้า-1" id="SZ9WsNL-cOKFqwkmCHHE">
    <mxGraphModel dx="2954" dy="1274" grid="1" gridSize="10" guides="1" tooltips="1" connect="1" arrows="1" fold="1" page="1" pageScale="1" pageWidth="827" pageHeight="1169" math="0" shadow="0">
      <root>
        <mxCell id="0" />
        <mxCell id="1" parent="0" />
        <mxCell id="dEq93GOd6ZIklFoB2IPW-32" value="" style="edgeStyle=orthogonalEdgeStyle;rounded=0;orthogonalLoop=1;jettySize=auto;html=1;" edge="1" parent="1" source="dEq93GOd6ZIklFoB2IPW-30" target="dEq93GOd6ZIklFoB2IPW-31">
          <mxGeometry relative="1" as="geometry" />
        </mxCell>
        <mxCell id="dEq93GOd6ZIklFoB2IPW-30" value="start" style="ellipse;whiteSpace=wrap;html=1;" vertex="1" parent="1">
          <mxGeometry x="350" y="50" width="120" height="80" as="geometry" />
        </mxCell>
        <mxCell id="dEq93GOd6ZIklFoB2IPW-36" value="" style="edgeStyle=orthogonalEdgeStyle;rounded=0;orthogonalLoop=1;jettySize=auto;html=1;" edge="1" parent="1" source="dEq93GOd6ZIklFoB2IPW-31" target="dEq93GOd6ZIklFoB2IPW-35">
          <mxGeometry relative="1" as="geometry" />
        </mxCell>
        <mxCell id="dEq93GOd6ZIklFoB2IPW-31" value="int r1, r2, c1, c2" style="whiteSpace=wrap;html=1;" vertex="1" parent="1">
          <mxGeometry x="350" y="220" width="120" height="60" as="geometry" />
        </mxCell>
        <mxCell id="dEq93GOd6ZIklFoB2IPW-38" value="" style="edgeStyle=orthogonalEdgeStyle;rounded=0;orthogonalLoop=1;jettySize=auto;html=1;" edge="1" parent="1" source="dEq93GOd6ZIklFoB2IPW-35" target="dEq93GOd6ZIklFoB2IPW-37">
          <mxGeometry relative="1" as="geometry" />
        </mxCell>
        <mxCell id="dEq93GOd6ZIklFoB2IPW-35" value="printf( &quot;Array1 Value : \n&quot; ) ;" style="shape=parallelogram;perimeter=parallelogramPerimeter;whiteSpace=wrap;html=1;fixedSize=1;" vertex="1" parent="1">
          <mxGeometry x="320" y="360" width="180" height="60" as="geometry" />
        </mxCell>
        <mxCell id="dEq93GOd6ZIklFoB2IPW-40" value="" style="edgeStyle=orthogonalEdgeStyle;rounded=0;orthogonalLoop=1;jettySize=auto;html=1;" edge="1" parent="1" source="dEq93GOd6ZIklFoB2IPW-37" target="dEq93GOd6ZIklFoB2IPW-39">
          <mxGeometry relative="1" as="geometry" />
        </mxCell>
        <mxCell id="dEq93GOd6ZIklFoB2IPW-37" value="รับค่าจากผู้ใช้" style="shape=parallelogram;perimeter=parallelogramPerimeter;whiteSpace=wrap;html=1;fixedSize=1;" vertex="1" parent="1">
          <mxGeometry x="350" y="500" width="120" height="60" as="geometry" />
        </mxCell>
        <mxCell id="dEq93GOd6ZIklFoB2IPW-42" value="" style="edgeStyle=orthogonalEdgeStyle;rounded=0;orthogonalLoop=1;jettySize=auto;html=1;" edge="1" parent="1" source="dEq93GOd6ZIklFoB2IPW-39" target="dEq93GOd6ZIklFoB2IPW-41">
          <mxGeometry relative="1" as="geometry" />
        </mxCell>
        <mxCell id="dEq93GOd6ZIklFoB2IPW-39" value="int array1" style="whiteSpace=wrap;html=1;" vertex="1" parent="1">
          <mxGeometry x="350" y="640" width="120" height="60" as="geometry" />
        </mxCell>
        <mxCell id="dEq93GOd6ZIklFoB2IPW-44" value="" style="edgeStyle=orthogonalEdgeStyle;rounded=0;orthogonalLoop=1;jettySize=auto;html=1;" edge="1" parent="1" source="dEq93GOd6ZIklFoB2IPW-41" target="dEq93GOd6ZIklFoB2IPW-43">
          <mxGeometry relative="1" as="geometry" />
        </mxCell>
        <mxCell id="dEq93GOd6ZIklFoB2IPW-41" value="แสดงคำว่า Array1 element" style="shape=parallelogram;perimeter=parallelogramPerimeter;whiteSpace=wrap;html=1;fixedSize=1;" vertex="1" parent="1">
          <mxGeometry x="315" y="780" width="190" height="60" as="geometry" />
        </mxCell>
        <mxCell id="dEq93GOd6ZIklFoB2IPW-46" value="" style="edgeStyle=orthogonalEdgeStyle;rounded=0;orthogonalLoop=1;jettySize=auto;html=1;" edge="1" parent="1" source="dEq93GOd6ZIklFoB2IPW-43" target="dEq93GOd6ZIklFoB2IPW-45">
          <mxGeometry relative="1" as="geometry" />
        </mxCell>
        <mxCell id="dEq93GOd6ZIklFoB2IPW-43" value="int i = 0" style="whiteSpace=wrap;html=1;" vertex="1" parent="1">
          <mxGeometry x="350" y="920" width="120" height="60" as="geometry" />
        </mxCell>
        <mxCell id="dEq93GOd6ZIklFoB2IPW-48" value="" style="edgeStyle=orthogonalEdgeStyle;rounded=0;orthogonalLoop=1;jettySize=auto;html=1;" edge="1" parent="1" source="dEq93GOd6ZIklFoB2IPW-45" target="dEq93GOd6ZIklFoB2IPW-47">
          <mxGeometry relative="1" as="geometry" />
        </mxCell>
        <mxCell id="dEq93GOd6ZIklFoB2IPW-67" value="" style="edgeStyle=orthogonalEdgeStyle;rounded=0;orthogonalLoop=1;jettySize=auto;html=1;" edge="1" parent="1" source="dEq93GOd6ZIklFoB2IPW-45" target="dEq93GOd6ZIklFoB2IPW-66">
          <mxGeometry relative="1" as="geometry" />
        </mxCell>
        <mxCell id="dEq93GOd6ZIklFoB2IPW-45" value="i &amp;lt; r1 ?" style="rhombus;whiteSpace=wrap;html=1;" vertex="1" parent="1">
          <mxGeometry x="370" y="1050" width="80" height="80" as="geometry" />
        </mxCell>
        <mxCell id="dEq93GOd6ZIklFoB2IPW-50" value="" style="edgeStyle=orthogonalEdgeStyle;rounded=0;orthogonalLoop=1;jettySize=auto;html=1;" edge="1" parent="1" source="dEq93GOd6ZIklFoB2IPW-47" target="dEq93GOd6ZIklFoB2IPW-49">
          <mxGeometry relative="1" as="geometry" />
        </mxCell>
        <mxCell id="dEq93GOd6ZIklFoB2IPW-47" value="int j = 0" style="whiteSpace=wrap;html=1;" vertex="1" parent="1">
          <mxGeometry x="350" y="1220" width="120" height="60" as="geometry" />
        </mxCell>
        <mxCell id="dEq93GOd6ZIklFoB2IPW-55" value="" style="edgeStyle=orthogonalEdgeStyle;rounded=0;orthogonalLoop=1;jettySize=auto;html=1;" edge="1" parent="1" source="dEq93GOd6ZIklFoB2IPW-49" target="dEq93GOd6ZIklFoB2IPW-54">
          <mxGeometry relative="1" as="geometry" />
        </mxCell>
        <mxCell id="dEq93GOd6ZIklFoB2IPW-62" value="" style="edgeStyle=orthogonalEdgeStyle;rounded=0;orthogonalLoop=1;jettySize=auto;html=1;" edge="1" parent="1" source="dEq93GOd6ZIklFoB2IPW-49" target="dEq93GOd6ZIklFoB2IPW-61">
          <mxGeometry relative="1" as="geometry" />
        </mxCell>
        <mxCell id="dEq93GOd6ZIklFoB2IPW-49" value="j &amp;lt; c1 ?" style="rhombus;whiteSpace=wrap;html=1;" vertex="1" parent="1">
          <mxGeometry x="370" y="1350" width="80" height="80" as="geometry" />
        </mxCell>
        <mxCell id="dEq93GOd6ZIklFoB2IPW-51" value="T" style="text;html=1;align=center;verticalAlign=middle;resizable=0;points=[];autosize=1;strokeColor=none;fillColor=none;" vertex="1" parent="1">
          <mxGeometry x="415" y="1128" width="30" height="30" as="geometry" />
        </mxCell>
        <mxCell id="dEq93GOd6ZIklFoB2IPW-57" value="" style="edgeStyle=orthogonalEdgeStyle;rounded=0;orthogonalLoop=1;jettySize=auto;html=1;" edge="1" parent="1" source="dEq93GOd6ZIklFoB2IPW-54" target="dEq93GOd6ZIklFoB2IPW-56">
          <mxGeometry relative="1" as="geometry" />
        </mxCell>
        <mxCell id="dEq93GOd6ZIklFoB2IPW-54" value="รับค่าจาก array1" style="shape=parallelogram;perimeter=parallelogramPerimeter;whiteSpace=wrap;html=1;fixedSize=1;" vertex="1" parent="1">
          <mxGeometry x="350" y="1520" width="120" height="60" as="geometry" />
        </mxCell>
        <mxCell id="dEq93GOd6ZIklFoB2IPW-56" value="j++" style="whiteSpace=wrap;html=1;" vertex="1" parent="1">
          <mxGeometry x="350" y="1660" width="120" height="60" as="geometry" />
        </mxCell>
        <mxCell id="dEq93GOd6ZIklFoB2IPW-58" value="" style="shape=waypoint;sketch=0;fillStyle=solid;size=6;pointerEvents=1;points=[];fillColor=none;resizable=0;rotatable=0;perimeter=centerPerimeter;snapToPoint=1;" vertex="1" parent="1">
          <mxGeometry x="400" y="1300" width="20" height="20" as="geometry" />
        </mxCell>
        <mxCell id="dEq93GOd6ZIklFoB2IPW-59" style="edgeStyle=orthogonalEdgeStyle;rounded=0;orthogonalLoop=1;jettySize=auto;html=1;exitX=0.5;exitY=1;exitDx=0;exitDy=0;entryX=0.7;entryY=0.7;entryDx=0;entryDy=0;entryPerimeter=0;" edge="1" parent="1" source="dEq93GOd6ZIklFoB2IPW-56" target="dEq93GOd6ZIklFoB2IPW-58">
          <mxGeometry relative="1" as="geometry">
            <Array as="points">
              <mxPoint x="410" y="1740" />
              <mxPoint x="560" y="1740" />
              <mxPoint x="560" y="1310" />
            </Array>
          </mxGeometry>
        </mxCell>
        <mxCell id="dEq93GOd6ZIklFoB2IPW-60" value="T" style="text;html=1;align=center;verticalAlign=middle;resizable=0;points=[];autosize=1;strokeColor=none;fillColor=none;" vertex="1" parent="1">
          <mxGeometry x="415" y="1428" width="30" height="30" as="geometry" />
        </mxCell>
        <mxCell id="dEq93GOd6ZIklFoB2IPW-61" value="i++" style="whiteSpace=wrap;html=1;" vertex="1" parent="1">
          <mxGeometry x="190" y="1360" width="120" height="60" as="geometry" />
        </mxCell>
        <mxCell id="dEq93GOd6ZIklFoB2IPW-63" value="" style="shape=waypoint;sketch=0;fillStyle=solid;size=6;pointerEvents=1;points=[];fillColor=none;resizable=0;rotatable=0;perimeter=centerPerimeter;snapToPoint=1;" vertex="1" parent="1">
          <mxGeometry x="400" y="990" width="20" height="20" as="geometry" />
        </mxCell>
        <mxCell id="dEq93GOd6ZIklFoB2IPW-64" style="edgeStyle=orthogonalEdgeStyle;rounded=0;orthogonalLoop=1;jettySize=auto;html=1;exitX=0.5;exitY=0;exitDx=0;exitDy=0;entryX=0.2;entryY=0.65;entryDx=0;entryDy=0;entryPerimeter=0;" edge="1" parent="1" source="dEq93GOd6ZIklFoB2IPW-61" target="dEq93GOd6ZIklFoB2IPW-63">
          <mxGeometry relative="1" as="geometry">
            <Array as="points">
              <mxPoint x="250" y="1000" />
            </Array>
          </mxGeometry>
        </mxCell>
        <mxCell id="dEq93GOd6ZIklFoB2IPW-65" value="F" style="text;html=1;align=center;verticalAlign=middle;resizable=0;points=[];autosize=1;strokeColor=none;fillColor=none;" vertex="1" parent="1">
          <mxGeometry x="325" y="1348" width="30" height="30" as="geometry" />
        </mxCell>
        <mxCell id="dEq93GOd6ZIklFoB2IPW-69" value="" style="edgeStyle=orthogonalEdgeStyle;rounded=0;orthogonalLoop=1;jettySize=auto;html=1;" edge="1" parent="1" source="dEq93GOd6ZIklFoB2IPW-66" target="dEq93GOd6ZIklFoB2IPW-68">
          <mxGeometry relative="1" as="geometry" />
        </mxCell>
        <mxCell id="dEq93GOd6ZIklFoB2IPW-66" value="แสดงคำว่า Array2 value" style="shape=parallelogram;perimeter=parallelogramPerimeter;whiteSpace=wrap;html=1;fixedSize=1;" vertex="1" parent="1">
          <mxGeometry x="510" y="1060" width="180" height="60" as="geometry" />
        </mxCell>
        <mxCell id="dEq93GOd6ZIklFoB2IPW-71" value="" style="edgeStyle=orthogonalEdgeStyle;rounded=0;orthogonalLoop=1;jettySize=auto;html=1;" edge="1" parent="1" source="dEq93GOd6ZIklFoB2IPW-68" target="dEq93GOd6ZIklFoB2IPW-70">
          <mxGeometry relative="1" as="geometry" />
        </mxCell>
        <mxCell id="dEq93GOd6ZIklFoB2IPW-68" value="รับค่าจากผู้ใช้ r2 และ c2" style="shape=parallelogram;perimeter=parallelogramPerimeter;whiteSpace=wrap;html=1;fixedSize=1;" vertex="1" parent="1">
          <mxGeometry x="800" y="1060" width="170" height="60" as="geometry" />
        </mxCell>
        <mxCell id="dEq93GOd6ZIklFoB2IPW-73" value="" style="edgeStyle=orthogonalEdgeStyle;rounded=0;orthogonalLoop=1;jettySize=auto;html=1;" edge="1" parent="1" source="dEq93GOd6ZIklFoB2IPW-70" target="dEq93GOd6ZIklFoB2IPW-72">
          <mxGeometry relative="1" as="geometry">
            <Array as="points">
              <mxPoint x="805" y="1230" />
            </Array>
          </mxGeometry>
        </mxCell>
        <mxCell id="dEq93GOd6ZIklFoB2IPW-78" value="" style="edgeStyle=orthogonalEdgeStyle;rounded=0;orthogonalLoop=1;jettySize=auto;html=1;" edge="1" parent="1" source="dEq93GOd6ZIklFoB2IPW-70" target="dEq93GOd6ZIklFoB2IPW-77">
          <mxGeometry relative="1" as="geometry" />
        </mxCell>
        <mxCell id="dEq93GOd6ZIklFoB2IPW-70" value="c! = r2 ?" style="rhombus;whiteSpace=wrap;html=1;" vertex="1" parent="1">
          <mxGeometry x="845" y="1190" width="80" height="80" as="geometry" />
        </mxCell>
        <mxCell id="dEq93GOd6ZIklFoB2IPW-76" value="" style="edgeStyle=orthogonalEdgeStyle;rounded=0;orthogonalLoop=1;jettySize=auto;html=1;" edge="1" parent="1" source="dEq93GOd6ZIklFoB2IPW-72" target="dEq93GOd6ZIklFoB2IPW-75">
          <mxGeometry relative="1" as="geometry" />
        </mxCell>
        <mxCell id="dEq93GOd6ZIklFoB2IPW-72" value="แสดงคำว่า&amp;nbsp;&amp;nbsp;Matrix multiplication not possible." style="shape=parallelogram;perimeter=parallelogramPerimeter;whiteSpace=wrap;html=1;fixedSize=1;" vertex="1" parent="1">
          <mxGeometry x="670" y="1458" width="290" height="60" as="geometry" />
        </mxCell>
        <mxCell id="dEq93GOd6ZIklFoB2IPW-74" value="T" style="text;html=1;align=center;verticalAlign=middle;resizable=0;points=[];autosize=1;strokeColor=none;fillColor=none;" vertex="1" parent="1">
          <mxGeometry x="805" y="1188" width="30" height="30" as="geometry" />
        </mxCell>
        <mxCell id="dEq93GOd6ZIklFoB2IPW-75" value="return 1" style="whiteSpace=wrap;html=1;" vertex="1" parent="1">
          <mxGeometry x="755" y="1598" width="120" height="60" as="geometry" />
        </mxCell>
        <mxCell id="dEq93GOd6ZIklFoB2IPW-80" value="" style="edgeStyle=orthogonalEdgeStyle;rounded=0;orthogonalLoop=1;jettySize=auto;html=1;" edge="1" parent="1" source="dEq93GOd6ZIklFoB2IPW-77" target="dEq93GOd6ZIklFoB2IPW-79">
          <mxGeometry relative="1" as="geometry" />
        </mxCell>
        <mxCell id="dEq93GOd6ZIklFoB2IPW-77" value="int arry2" style="whiteSpace=wrap;html=1;" vertex="1" parent="1">
          <mxGeometry x="985" y="1200" width="120" height="60" as="geometry" />
        </mxCell>
        <mxCell id="dEq93GOd6ZIklFoB2IPW-82" value="" style="edgeStyle=orthogonalEdgeStyle;rounded=0;orthogonalLoop=1;jettySize=auto;html=1;" edge="1" parent="1" source="dEq93GOd6ZIklFoB2IPW-79" target="dEq93GOd6ZIklFoB2IPW-81">
          <mxGeometry relative="1" as="geometry" />
        </mxCell>
        <mxCell id="dEq93GOd6ZIklFoB2IPW-79" value="แสดงคำว่า&amp;nbsp;Array2 element" style="shape=parallelogram;perimeter=parallelogramPerimeter;whiteSpace=wrap;html=1;fixedSize=1;" vertex="1" parent="1">
          <mxGeometry x="1180" y="1310" width="185" height="60" as="geometry" />
        </mxCell>
        <mxCell id="dEq93GOd6ZIklFoB2IPW-84" value="" style="edgeStyle=orthogonalEdgeStyle;rounded=0;orthogonalLoop=1;jettySize=auto;html=1;" edge="1" parent="1" source="dEq93GOd6ZIklFoB2IPW-81" target="dEq93GOd6ZIklFoB2IPW-83">
          <mxGeometry relative="1" as="geometry" />
        </mxCell>
        <mxCell id="dEq93GOd6ZIklFoB2IPW-81" value="int i = 0" style="whiteSpace=wrap;html=1;" vertex="1" parent="1">
          <mxGeometry x="1212.5" y="1450" width="120" height="60" as="geometry" />
        </mxCell>
        <mxCell id="dEq93GOd6ZIklFoB2IPW-86" value="" style="edgeStyle=orthogonalEdgeStyle;rounded=0;orthogonalLoop=1;jettySize=auto;html=1;" edge="1" parent="1" source="dEq93GOd6ZIklFoB2IPW-83" target="dEq93GOd6ZIklFoB2IPW-85">
          <mxGeometry relative="1" as="geometry" />
        </mxCell>
        <mxCell id="dEq93GOd6ZIklFoB2IPW-105" value="" style="edgeStyle=orthogonalEdgeStyle;rounded=0;orthogonalLoop=1;jettySize=auto;html=1;" edge="1" parent="1" source="dEq93GOd6ZIklFoB2IPW-83" target="dEq93GOd6ZIklFoB2IPW-104">
          <mxGeometry relative="1" as="geometry" />
        </mxCell>
        <mxCell id="dEq93GOd6ZIklFoB2IPW-83" value="i &amp;lt; r2 ?" style="rhombus;whiteSpace=wrap;html=1;" vertex="1" parent="1">
          <mxGeometry x="1232.5" y="1580" width="80" height="80" as="geometry" />
        </mxCell>
        <mxCell id="dEq93GOd6ZIklFoB2IPW-88" value="" style="edgeStyle=orthogonalEdgeStyle;rounded=0;orthogonalLoop=1;jettySize=auto;html=1;" edge="1" parent="1" source="dEq93GOd6ZIklFoB2IPW-85" target="dEq93GOd6ZIklFoB2IPW-87">
          <mxGeometry relative="1" as="geometry" />
        </mxCell>
        <mxCell id="dEq93GOd6ZIklFoB2IPW-85" value="int j = 0" style="whiteSpace=wrap;html=1;" vertex="1" parent="1">
          <mxGeometry x="1000" y="1754" width="120" height="60" as="geometry" />
        </mxCell>
        <mxCell id="dEq93GOd6ZIklFoB2IPW-90" value="" style="edgeStyle=orthogonalEdgeStyle;rounded=0;orthogonalLoop=1;jettySize=auto;html=1;" edge="1" parent="1" source="dEq93GOd6ZIklFoB2IPW-87" target="dEq93GOd6ZIklFoB2IPW-89">
          <mxGeometry relative="1" as="geometry" />
        </mxCell>
        <mxCell id="dEq93GOd6ZIklFoB2IPW-98" value="" style="edgeStyle=orthogonalEdgeStyle;rounded=0;orthogonalLoop=1;jettySize=auto;html=1;" edge="1" parent="1" source="dEq93GOd6ZIklFoB2IPW-87" target="dEq93GOd6ZIklFoB2IPW-97">
          <mxGeometry relative="1" as="geometry" />
        </mxCell>
        <mxCell id="dEq93GOd6ZIklFoB2IPW-87" value="j &amp;lt; 2 ?" style="rhombus;whiteSpace=wrap;html=1;" vertex="1" parent="1">
          <mxGeometry x="1020" y="1884" width="80" height="80" as="geometry" />
        </mxCell>
        <mxCell id="dEq93GOd6ZIklFoB2IPW-92" style="edgeStyle=orthogonalEdgeStyle;rounded=0;orthogonalLoop=1;jettySize=auto;html=1;exitX=0.5;exitY=1;exitDx=0;exitDy=0;" edge="1" parent="1" source="dEq93GOd6ZIklFoB2IPW-89" target="dEq93GOd6ZIklFoB2IPW-93">
          <mxGeometry relative="1" as="geometry">
            <mxPoint x="1400" y="1430" as="targetPoint" />
            <Array as="points">
              <mxPoint x="1060" y="2160" />
              <mxPoint x="1370" y="2160" />
              <mxPoint x="1370" y="1530" />
            </Array>
          </mxGeometry>
        </mxCell>
        <mxCell id="dEq93GOd6ZIklFoB2IPW-89" value="i++" style="whiteSpace=wrap;html=1;" vertex="1" parent="1">
          <mxGeometry x="1000" y="2054" width="120" height="60" as="geometry" />
        </mxCell>
        <mxCell id="dEq93GOd6ZIklFoB2IPW-91" value="F" style="text;html=1;align=center;verticalAlign=middle;resizable=0;points=[];autosize=1;strokeColor=none;fillColor=none;" vertex="1" parent="1">
          <mxGeometry x="1065" y="1958" width="30" height="30" as="geometry" />
        </mxCell>
        <mxCell id="dEq93GOd6ZIklFoB2IPW-93" value="" style="shape=waypoint;sketch=0;fillStyle=solid;size=6;pointerEvents=1;points=[];fillColor=none;resizable=0;rotatable=0;perimeter=centerPerimeter;snapToPoint=1;" vertex="1" parent="1">
          <mxGeometry x="1263" y="1520" width="20" height="20" as="geometry" />
        </mxCell>
        <mxCell id="dEq93GOd6ZIklFoB2IPW-94" value="T" style="text;html=1;align=center;verticalAlign=middle;resizable=0;points=[];autosize=1;strokeColor=none;fillColor=none;" vertex="1" parent="1">
          <mxGeometry x="1195" y="1588" width="30" height="30" as="geometry" />
        </mxCell>
        <mxCell id="dEq93GOd6ZIklFoB2IPW-101" value="" style="edgeStyle=orthogonalEdgeStyle;rounded=0;orthogonalLoop=1;jettySize=auto;html=1;" edge="1" parent="1" source="dEq93GOd6ZIklFoB2IPW-97" target="dEq93GOd6ZIklFoB2IPW-100">
          <mxGeometry relative="1" as="geometry" />
        </mxCell>
        <mxCell id="dEq93GOd6ZIklFoB2IPW-97" value="รับค่าจากผู้ใช้ จาก array2" style="shape=parallelogram;perimeter=parallelogramPerimeter;whiteSpace=wrap;html=1;fixedSize=1;" vertex="1" parent="1">
          <mxGeometry x="755" y="1994" width="175" height="60" as="geometry" />
        </mxCell>
        <mxCell id="dEq93GOd6ZIklFoB2IPW-99" value="T" style="text;html=1;align=center;verticalAlign=middle;resizable=0;points=[];autosize=1;strokeColor=none;fillColor=none;" vertex="1" parent="1">
          <mxGeometry x="985" y="1878" width="30" height="30" as="geometry" />
        </mxCell>
        <mxCell id="dEq93GOd6ZIklFoB2IPW-100" value="j++" style="whiteSpace=wrap;html=1;" vertex="1" parent="1">
          <mxGeometry x="782.5" y="2134" width="120" height="60" as="geometry" />
        </mxCell>
        <mxCell id="dEq93GOd6ZIklFoB2IPW-102" value="" style="shape=waypoint;sketch=0;fillStyle=solid;size=6;pointerEvents=1;points=[];fillColor=none;resizable=0;rotatable=0;perimeter=centerPerimeter;snapToPoint=1;" vertex="1" parent="1">
          <mxGeometry x="1050" y="1820" width="20" height="20" as="geometry" />
        </mxCell>
        <mxCell id="dEq93GOd6ZIklFoB2IPW-103" style="edgeStyle=orthogonalEdgeStyle;rounded=0;orthogonalLoop=1;jettySize=auto;html=1;exitX=0.5;exitY=1;exitDx=0;exitDy=0;entryX=0.05;entryY=0.4;entryDx=0;entryDy=0;entryPerimeter=0;" edge="1" parent="1" source="dEq93GOd6ZIklFoB2IPW-100" target="dEq93GOd6ZIklFoB2IPW-102">
          <mxGeometry relative="1" as="geometry">
            <Array as="points">
              <mxPoint x="843" y="2240" />
              <mxPoint x="710" y="2240" />
              <mxPoint x="710" y="1830" />
            </Array>
          </mxGeometry>
        </mxCell>
        <mxCell id="dEq93GOd6ZIklFoB2IPW-108" value="" style="edgeStyle=orthogonalEdgeStyle;rounded=0;orthogonalLoop=1;jettySize=auto;html=1;" edge="1" parent="1" source="dEq93GOd6ZIklFoB2IPW-104" target="dEq93GOd6ZIklFoB2IPW-107">
          <mxGeometry relative="1" as="geometry" />
        </mxCell>
        <mxCell id="dEq93GOd6ZIklFoB2IPW-104" value="int result" style="whiteSpace=wrap;html=1;" vertex="1" parent="1">
          <mxGeometry x="1410" y="1670" width="120" height="60" as="geometry" />
        </mxCell>
        <mxCell id="dEq93GOd6ZIklFoB2IPW-106" value="F" style="text;html=1;align=center;verticalAlign=middle;resizable=0;points=[];autosize=1;strokeColor=none;fillColor=none;" vertex="1" parent="1">
          <mxGeometry x="1315" y="1588" width="30" height="30" as="geometry" />
        </mxCell>
        <mxCell id="dEq93GOd6ZIklFoB2IPW-110" value="" style="edgeStyle=orthogonalEdgeStyle;rounded=0;orthogonalLoop=1;jettySize=auto;html=1;" edge="1" parent="1" source="dEq93GOd6ZIklFoB2IPW-118" target="dEq93GOd6ZIklFoB2IPW-109">
          <mxGeometry relative="1" as="geometry" />
        </mxCell>
        <mxCell id="dEq93GOd6ZIklFoB2IPW-107" value="int i = 0" style="whiteSpace=wrap;html=1;" vertex="1" parent="1">
          <mxGeometry x="1410" y="1810" width="120" height="60" as="geometry" />
        </mxCell>
        <mxCell id="dEq93GOd6ZIklFoB2IPW-112" value="" style="edgeStyle=orthogonalEdgeStyle;rounded=0;orthogonalLoop=1;jettySize=auto;html=1;" edge="1" parent="1" source="dEq93GOd6ZIklFoB2IPW-109" target="dEq93GOd6ZIklFoB2IPW-111">
          <mxGeometry relative="1" as="geometry" />
        </mxCell>
        <mxCell id="dEq93GOd6ZIklFoB2IPW-129" value="" style="edgeStyle=orthogonalEdgeStyle;rounded=0;orthogonalLoop=1;jettySize=auto;html=1;" edge="1" parent="1" source="dEq93GOd6ZIklFoB2IPW-109" target="dEq93GOd6ZIklFoB2IPW-128">
          <mxGeometry relative="1" as="geometry" />
        </mxCell>
        <mxCell id="dEq93GOd6ZIklFoB2IPW-109" value="i &amp;lt; r1 ?" style="rhombus;whiteSpace=wrap;html=1;" vertex="1" parent="1">
          <mxGeometry x="1670" y="1908" width="80" height="80" as="geometry" />
        </mxCell>
        <mxCell id="dEq93GOd6ZIklFoB2IPW-114" value="" style="edgeStyle=orthogonalEdgeStyle;rounded=0;orthogonalLoop=1;jettySize=auto;html=1;" edge="1" parent="1" source="dEq93GOd6ZIklFoB2IPW-111" target="dEq93GOd6ZIklFoB2IPW-113">
          <mxGeometry relative="1" as="geometry" />
        </mxCell>
        <mxCell id="dEq93GOd6ZIklFoB2IPW-111" value="int j = 0" style="whiteSpace=wrap;html=1;" vertex="1" parent="1">
          <mxGeometry x="1650" y="2078" width="120" height="60" as="geometry" />
        </mxCell>
        <mxCell id="dEq93GOd6ZIklFoB2IPW-116" value="" style="edgeStyle=orthogonalEdgeStyle;rounded=0;orthogonalLoop=1;jettySize=auto;html=1;" edge="1" parent="1" source="dEq93GOd6ZIklFoB2IPW-113" target="dEq93GOd6ZIklFoB2IPW-115">
          <mxGeometry relative="1" as="geometry" />
        </mxCell>
        <mxCell id="dEq93GOd6ZIklFoB2IPW-123" value="" style="edgeStyle=orthogonalEdgeStyle;rounded=0;orthogonalLoop=1;jettySize=auto;html=1;" edge="1" parent="1" source="dEq93GOd6ZIklFoB2IPW-113" target="dEq93GOd6ZIklFoB2IPW-122">
          <mxGeometry relative="1" as="geometry" />
        </mxCell>
        <mxCell id="dEq93GOd6ZIklFoB2IPW-113" value="j &amp;lt; c2 ?" style="rhombus;whiteSpace=wrap;html=1;" vertex="1" parent="1">
          <mxGeometry x="1670" y="2208" width="80" height="80" as="geometry" />
        </mxCell>
        <mxCell id="dEq93GOd6ZIklFoB2IPW-115" value="i++" style="whiteSpace=wrap;html=1;" vertex="1" parent="1">
          <mxGeometry x="1650" y="2378" width="120" height="60" as="geometry" />
        </mxCell>
        <mxCell id="dEq93GOd6ZIklFoB2IPW-117" value="" style="edgeStyle=orthogonalEdgeStyle;rounded=0;orthogonalLoop=1;jettySize=auto;html=1;" edge="1" parent="1" source="dEq93GOd6ZIklFoB2IPW-107" target="dEq93GOd6ZIklFoB2IPW-118">
          <mxGeometry relative="1" as="geometry">
            <mxPoint x="1530" y="1840" as="sourcePoint" />
            <mxPoint x="1710" y="1908" as="targetPoint" />
          </mxGeometry>
        </mxCell>
        <mxCell id="dEq93GOd6ZIklFoB2IPW-118" value="" style="shape=waypoint;sketch=0;fillStyle=solid;size=6;pointerEvents=1;points=[];fillColor=none;resizable=0;rotatable=0;perimeter=centerPerimeter;snapToPoint=1;" vertex="1" parent="1">
          <mxGeometry x="1550" y="1830" width="20" height="20" as="geometry" />
        </mxCell>
        <mxCell id="dEq93GOd6ZIklFoB2IPW-119" style="edgeStyle=orthogonalEdgeStyle;rounded=0;orthogonalLoop=1;jettySize=auto;html=1;exitX=0.5;exitY=1;exitDx=0;exitDy=0;entryX=0.3;entryY=0.75;entryDx=0;entryDy=0;entryPerimeter=0;" edge="1" parent="1" source="dEq93GOd6ZIklFoB2IPW-115" target="dEq93GOd6ZIklFoB2IPW-118">
          <mxGeometry relative="1" as="geometry" />
        </mxCell>
        <mxCell id="dEq93GOd6ZIklFoB2IPW-120" value="T" style="text;html=1;align=center;verticalAlign=middle;resizable=0;points=[];autosize=1;strokeColor=none;fillColor=none;" vertex="1" parent="1">
          <mxGeometry x="1705" y="1988" width="30" height="30" as="geometry" />
        </mxCell>
        <mxCell id="dEq93GOd6ZIklFoB2IPW-121" value="F" style="text;html=1;align=center;verticalAlign=middle;resizable=0;points=[];autosize=1;strokeColor=none;fillColor=none;" vertex="1" parent="1">
          <mxGeometry x="1715" y="2288" width="30" height="30" as="geometry" />
        </mxCell>
        <mxCell id="dEq93GOd6ZIklFoB2IPW-125" value="" style="edgeStyle=orthogonalEdgeStyle;rounded=0;orthogonalLoop=1;jettySize=auto;html=1;" edge="1" parent="1" source="dEq93GOd6ZIklFoB2IPW-122" target="dEq93GOd6ZIklFoB2IPW-124">
          <mxGeometry relative="1" as="geometry" />
        </mxCell>
        <mxCell id="dEq93GOd6ZIklFoB2IPW-122" value="result" style="whiteSpace=wrap;html=1;" vertex="1" parent="1">
          <mxGeometry x="1810" y="2218" width="120" height="60" as="geometry" />
        </mxCell>
        <mxCell id="dEq93GOd6ZIklFoB2IPW-127" style="edgeStyle=orthogonalEdgeStyle;rounded=0;orthogonalLoop=1;jettySize=auto;html=1;exitX=0.5;exitY=0;exitDx=0;exitDy=0;" edge="1" parent="1" source="dEq93GOd6ZIklFoB2IPW-124" target="dEq93GOd6ZIklFoB2IPW-126">
          <mxGeometry relative="1" as="geometry">
            <Array as="points">
              <mxPoint x="2070" y="2164" />
            </Array>
          </mxGeometry>
        </mxCell>
        <mxCell id="dEq93GOd6ZIklFoB2IPW-124" value="j++" style="whiteSpace=wrap;html=1;" vertex="1" parent="1">
          <mxGeometry x="2010" y="2218" width="120" height="60" as="geometry" />
        </mxCell>
        <mxCell id="dEq93GOd6ZIklFoB2IPW-126" value="" style="shape=waypoint;sketch=0;fillStyle=solid;size=6;pointerEvents=1;points=[];fillColor=none;resizable=0;rotatable=0;perimeter=centerPerimeter;snapToPoint=1;" vertex="1" parent="1">
          <mxGeometry x="1700" y="2154" width="20" height="20" as="geometry" />
        </mxCell>
        <mxCell id="dEq93GOd6ZIklFoB2IPW-131" value="" style="edgeStyle=orthogonalEdgeStyle;rounded=0;orthogonalLoop=1;jettySize=auto;html=1;" edge="1" parent="1" source="dEq93GOd6ZIklFoB2IPW-128" target="dEq93GOd6ZIklFoB2IPW-130">
          <mxGeometry relative="1" as="geometry" />
        </mxCell>
        <mxCell id="dEq93GOd6ZIklFoB2IPW-128" value="result[ i ][ j ] = 0" style="whiteSpace=wrap;html=1;" vertex="1" parent="1">
          <mxGeometry x="1810" y="1918" width="120" height="60" as="geometry" />
        </mxCell>
        <mxCell id="dEq93GOd6ZIklFoB2IPW-133" value="" style="edgeStyle=orthogonalEdgeStyle;rounded=0;orthogonalLoop=1;jettySize=auto;html=1;" edge="1" parent="1" source="dEq93GOd6ZIklFoB2IPW-158" target="dEq93GOd6ZIklFoB2IPW-132">
          <mxGeometry relative="1" as="geometry" />
        </mxCell>
        <mxCell id="dEq93GOd6ZIklFoB2IPW-130" value="int i = 0" style="whiteSpace=wrap;html=1;" vertex="1" parent="1">
          <mxGeometry x="2010" y="1918" width="120" height="60" as="geometry" />
        </mxCell>
        <mxCell id="dEq93GOd6ZIklFoB2IPW-135" value="" style="edgeStyle=orthogonalEdgeStyle;rounded=0;orthogonalLoop=1;jettySize=auto;html=1;" edge="1" parent="1" source="dEq93GOd6ZIklFoB2IPW-132" target="dEq93GOd6ZIklFoB2IPW-134">
          <mxGeometry relative="1" as="geometry" />
        </mxCell>
        <mxCell id="dEq93GOd6ZIklFoB2IPW-163" value="" style="edgeStyle=orthogonalEdgeStyle;rounded=0;orthogonalLoop=1;jettySize=auto;html=1;" edge="1" parent="1" source="dEq93GOd6ZIklFoB2IPW-132" target="dEq93GOd6ZIklFoB2IPW-162">
          <mxGeometry relative="1" as="geometry" />
        </mxCell>
        <mxCell id="dEq93GOd6ZIklFoB2IPW-132" value="i &amp;lt; r1 ?" style="rhombus;whiteSpace=wrap;html=1;" vertex="1" parent="1">
          <mxGeometry x="2230" y="1908" width="80" height="80" as="geometry" />
        </mxCell>
        <mxCell id="dEq93GOd6ZIklFoB2IPW-137" value="" style="edgeStyle=orthogonalEdgeStyle;rounded=0;orthogonalLoop=1;jettySize=auto;html=1;" edge="1" parent="1" source="dEq93GOd6ZIklFoB2IPW-134" target="dEq93GOd6ZIklFoB2IPW-136">
          <mxGeometry relative="1" as="geometry" />
        </mxCell>
        <mxCell id="dEq93GOd6ZIklFoB2IPW-134" value="int j = 0" style="whiteSpace=wrap;html=1;" vertex="1" parent="1">
          <mxGeometry x="2481" y="2050" width="120" height="60" as="geometry" />
        </mxCell>
        <mxCell id="dEq93GOd6ZIklFoB2IPW-140" value="" style="edgeStyle=orthogonalEdgeStyle;rounded=0;orthogonalLoop=1;jettySize=auto;html=1;" edge="1" parent="1" source="dEq93GOd6ZIklFoB2IPW-136" target="dEq93GOd6ZIklFoB2IPW-139">
          <mxGeometry relative="1" as="geometry" />
        </mxCell>
        <mxCell id="dEq93GOd6ZIklFoB2IPW-156" value="" style="edgeStyle=orthogonalEdgeStyle;rounded=0;orthogonalLoop=1;jettySize=auto;html=1;" edge="1" parent="1" source="dEq93GOd6ZIklFoB2IPW-136" target="dEq93GOd6ZIklFoB2IPW-155">
          <mxGeometry relative="1" as="geometry" />
        </mxCell>
        <mxCell id="dEq93GOd6ZIklFoB2IPW-136" value="j &amp;lt; 2 ?" style="rhombus;whiteSpace=wrap;html=1;" vertex="1" parent="1">
          <mxGeometry x="2501" y="2180" width="80" height="80" as="geometry" />
        </mxCell>
        <mxCell id="dEq93GOd6ZIklFoB2IPW-138" value="T" style="text;html=1;align=center;verticalAlign=middle;resizable=0;points=[];autosize=1;strokeColor=none;fillColor=none;" vertex="1" parent="1">
          <mxGeometry x="2305" y="1908" width="30" height="30" as="geometry" />
        </mxCell>
        <mxCell id="dEq93GOd6ZIklFoB2IPW-143" value="" style="edgeStyle=orthogonalEdgeStyle;rounded=0;orthogonalLoop=1;jettySize=auto;html=1;" edge="1" parent="1" source="dEq93GOd6ZIklFoB2IPW-139" target="dEq93GOd6ZIklFoB2IPW-142">
          <mxGeometry relative="1" as="geometry" />
        </mxCell>
        <mxCell id="dEq93GOd6ZIklFoB2IPW-139" value="int k = 0" style="whiteSpace=wrap;html=1;" vertex="1" parent="1">
          <mxGeometry x="2481" y="2350" width="120" height="60" as="geometry" />
        </mxCell>
        <mxCell id="dEq93GOd6ZIklFoB2IPW-141" value="T" style="text;html=1;align=center;verticalAlign=middle;resizable=0;points=[];autosize=1;strokeColor=none;fillColor=none;" vertex="1" parent="1">
          <mxGeometry x="2555" y="2258" width="30" height="30" as="geometry" />
        </mxCell>
        <mxCell id="dEq93GOd6ZIklFoB2IPW-145" value="" style="edgeStyle=orthogonalEdgeStyle;rounded=0;orthogonalLoop=1;jettySize=auto;html=1;" edge="1" parent="1" source="dEq93GOd6ZIklFoB2IPW-142" target="dEq93GOd6ZIklFoB2IPW-144">
          <mxGeometry relative="1" as="geometry" />
        </mxCell>
        <mxCell id="dEq93GOd6ZIklFoB2IPW-152" value="" style="edgeStyle=orthogonalEdgeStyle;rounded=0;orthogonalLoop=1;jettySize=auto;html=1;" edge="1" parent="1" source="dEq93GOd6ZIklFoB2IPW-142" target="dEq93GOd6ZIklFoB2IPW-151">
          <mxGeometry relative="1" as="geometry" />
        </mxCell>
        <mxCell id="dEq93GOd6ZIklFoB2IPW-142" value="k &amp;lt; c1 ?" style="rhombus;whiteSpace=wrap;html=1;" vertex="1" parent="1">
          <mxGeometry x="2501" y="2490" width="80" height="80" as="geometry" />
        </mxCell>
        <mxCell id="dEq93GOd6ZIklFoB2IPW-148" value="" style="edgeStyle=orthogonalEdgeStyle;rounded=0;orthogonalLoop=1;jettySize=auto;html=1;" edge="1" parent="1" source="dEq93GOd6ZIklFoB2IPW-144" target="dEq93GOd6ZIklFoB2IPW-147">
          <mxGeometry relative="1" as="geometry" />
        </mxCell>
        <mxCell id="dEq93GOd6ZIklFoB2IPW-144" value="&amp;nbsp;result[ i ][ j ] += array1[ i ][ k]" style="whiteSpace=wrap;html=1;" vertex="1" parent="1">
          <mxGeometry x="2426.5" y="2660" width="229" height="60" as="geometry" />
        </mxCell>
        <mxCell id="dEq93GOd6ZIklFoB2IPW-146" value="T" style="text;html=1;align=center;verticalAlign=middle;resizable=0;points=[];autosize=1;strokeColor=none;fillColor=none;" vertex="1" parent="1">
          <mxGeometry x="2575" y="2568" width="30" height="30" as="geometry" />
        </mxCell>
        <mxCell id="dEq93GOd6ZIklFoB2IPW-147" value="k++" style="whiteSpace=wrap;html=1;" vertex="1" parent="1">
          <mxGeometry x="2481" y="2800" width="120" height="60" as="geometry" />
        </mxCell>
        <mxCell id="dEq93GOd6ZIklFoB2IPW-149" value="" style="shape=waypoint;sketch=0;fillStyle=solid;size=6;pointerEvents=1;points=[];fillColor=none;resizable=0;rotatable=0;perimeter=centerPerimeter;snapToPoint=1;" vertex="1" parent="1">
          <mxGeometry x="2531" y="2430" width="20" height="20" as="geometry" />
        </mxCell>
        <mxCell id="dEq93GOd6ZIklFoB2IPW-150" style="edgeStyle=orthogonalEdgeStyle;rounded=0;orthogonalLoop=1;jettySize=auto;html=1;exitX=0.5;exitY=1;exitDx=0;exitDy=0;entryX=0.95;entryY=0.95;entryDx=0;entryDy=0;entryPerimeter=0;" edge="1" parent="1" source="dEq93GOd6ZIklFoB2IPW-147" target="dEq93GOd6ZIklFoB2IPW-149">
          <mxGeometry relative="1" as="geometry">
            <Array as="points">
              <mxPoint x="2541" y="2880" />
              <mxPoint x="2390" y="2880" />
              <mxPoint x="2390" y="2440" />
            </Array>
          </mxGeometry>
        </mxCell>
        <mxCell id="dEq93GOd6ZIklFoB2IPW-151" value="j++" style="whiteSpace=wrap;html=1;" vertex="1" parent="1">
          <mxGeometry x="2641" y="2500" width="120" height="60" as="geometry" />
        </mxCell>
        <mxCell id="dEq93GOd6ZIklFoB2IPW-153" value="" style="shape=waypoint;sketch=0;fillStyle=solid;size=6;pointerEvents=1;points=[];fillColor=none;resizable=0;rotatable=0;perimeter=centerPerimeter;snapToPoint=1;" vertex="1" parent="1">
          <mxGeometry x="2531" y="2118" width="20" height="20" as="geometry" />
        </mxCell>
        <mxCell id="dEq93GOd6ZIklFoB2IPW-154" style="edgeStyle=orthogonalEdgeStyle;rounded=0;orthogonalLoop=1;jettySize=auto;html=1;exitX=0.5;exitY=0;exitDx=0;exitDy=0;entryX=0.05;entryY=0.3;entryDx=0;entryDy=0;entryPerimeter=0;" edge="1" parent="1" source="dEq93GOd6ZIklFoB2IPW-151" target="dEq93GOd6ZIklFoB2IPW-153">
          <mxGeometry relative="1" as="geometry">
            <Array as="points">
              <mxPoint x="2701" y="2128" />
            </Array>
          </mxGeometry>
        </mxCell>
        <mxCell id="dEq93GOd6ZIklFoB2IPW-155" value="i++" style="whiteSpace=wrap;html=1;" vertex="1" parent="1">
          <mxGeometry x="2321" y="2190" width="120" height="60" as="geometry" />
        </mxCell>
        <mxCell id="dEq93GOd6ZIklFoB2IPW-157" value="" style="edgeStyle=orthogonalEdgeStyle;rounded=0;orthogonalLoop=1;jettySize=auto;html=1;" edge="1" parent="1" source="dEq93GOd6ZIklFoB2IPW-130" target="dEq93GOd6ZIklFoB2IPW-158">
          <mxGeometry relative="1" as="geometry">
            <mxPoint x="2130" y="1948" as="sourcePoint" />
            <mxPoint x="2230" y="1948" as="targetPoint" />
          </mxGeometry>
        </mxCell>
        <mxCell id="dEq93GOd6ZIklFoB2IPW-158" value="" style="shape=waypoint;sketch=0;fillStyle=solid;size=6;pointerEvents=1;points=[];fillColor=none;resizable=0;rotatable=0;perimeter=centerPerimeter;snapToPoint=1;" vertex="1" parent="1">
          <mxGeometry x="2180" y="1938" width="20" height="20" as="geometry" />
        </mxCell>
        <mxCell id="dEq93GOd6ZIklFoB2IPW-159" style="edgeStyle=orthogonalEdgeStyle;rounded=0;orthogonalLoop=1;jettySize=auto;html=1;exitX=0;exitY=0.5;exitDx=0;exitDy=0;entryX=0.25;entryY=1.05;entryDx=0;entryDy=0;entryPerimeter=0;" edge="1" parent="1" source="dEq93GOd6ZIklFoB2IPW-155" target="dEq93GOd6ZIklFoB2IPW-158">
          <mxGeometry relative="1" as="geometry" />
        </mxCell>
        <mxCell id="dEq93GOd6ZIklFoB2IPW-165" value="" style="edgeStyle=orthogonalEdgeStyle;rounded=0;orthogonalLoop=1;jettySize=auto;html=1;" edge="1" parent="1" source="dEq93GOd6ZIklFoB2IPW-162" target="dEq93GOd6ZIklFoB2IPW-164">
          <mxGeometry relative="1" as="geometry" />
        </mxCell>
        <mxCell id="dEq93GOd6ZIklFoB2IPW-162" value="แสดงคำว่า Array1" style="shape=parallelogram;perimeter=parallelogramPerimeter;whiteSpace=wrap;html=1;fixedSize=1;" vertex="1" parent="1">
          <mxGeometry x="2210" y="1758" width="120" height="60" as="geometry" />
        </mxCell>
        <mxCell id="dEq93GOd6ZIklFoB2IPW-167" value="" style="edgeStyle=orthogonalEdgeStyle;rounded=0;orthogonalLoop=1;jettySize=auto;html=1;" edge="1" parent="1" source="dEq93GOd6ZIklFoB2IPW-164" target="dEq93GOd6ZIklFoB2IPW-166">
          <mxGeometry relative="1" as="geometry" />
        </mxCell>
        <mxCell id="dEq93GOd6ZIklFoB2IPW-164" value="int i = 0" style="whiteSpace=wrap;html=1;" vertex="1" parent="1">
          <mxGeometry x="2530" y="1758" width="120" height="60" as="geometry" />
        </mxCell>
        <mxCell id="dEq93GOd6ZIklFoB2IPW-169" value="" style="edgeStyle=orthogonalEdgeStyle;rounded=0;orthogonalLoop=1;jettySize=auto;html=1;" edge="1" parent="1" source="dEq93GOd6ZIklFoB2IPW-166" target="dEq93GOd6ZIklFoB2IPW-168">
          <mxGeometry relative="1" as="geometry" />
        </mxCell>
        <mxCell id="dEq93GOd6ZIklFoB2IPW-189" value="" style="edgeStyle=orthogonalEdgeStyle;rounded=0;orthogonalLoop=1;jettySize=auto;html=1;" edge="1" parent="1" source="dEq93GOd6ZIklFoB2IPW-166" target="dEq93GOd6ZIklFoB2IPW-188">
          <mxGeometry relative="1" as="geometry" />
        </mxCell>
        <mxCell id="dEq93GOd6ZIklFoB2IPW-166" value="i &amp;lt; r1 ?" style="rhombus;whiteSpace=wrap;html=1;" vertex="1" parent="1">
          <mxGeometry x="2880" y="1884" width="80" height="80" as="geometry" />
        </mxCell>
        <mxCell id="dEq93GOd6ZIklFoB2IPW-172" value="" style="edgeStyle=orthogonalEdgeStyle;rounded=0;orthogonalLoop=1;jettySize=auto;html=1;" edge="1" parent="1" source="dEq93GOd6ZIklFoB2IPW-168" target="dEq93GOd6ZIklFoB2IPW-171">
          <mxGeometry relative="1" as="geometry" />
        </mxCell>
        <mxCell id="dEq93GOd6ZIklFoB2IPW-168" value="int j = 0" style="whiteSpace=wrap;html=1;" vertex="1" parent="1">
          <mxGeometry x="2860" y="2054" width="120" height="60" as="geometry" />
        </mxCell>
        <mxCell id="dEq93GOd6ZIklFoB2IPW-170" value="T" style="text;html=1;align=center;verticalAlign=middle;resizable=0;points=[];autosize=1;strokeColor=none;fillColor=none;" vertex="1" parent="1">
          <mxGeometry x="2935" y="1958" width="30" height="30" as="geometry" />
        </mxCell>
        <mxCell id="dEq93GOd6ZIklFoB2IPW-176" value="" style="edgeStyle=orthogonalEdgeStyle;rounded=0;orthogonalLoop=1;jettySize=auto;html=1;" edge="1" parent="1" source="dEq93GOd6ZIklFoB2IPW-171" target="dEq93GOd6ZIklFoB2IPW-175">
          <mxGeometry relative="1" as="geometry" />
        </mxCell>
        <mxCell id="dEq93GOd6ZIklFoB2IPW-183" value="" style="edgeStyle=orthogonalEdgeStyle;rounded=0;orthogonalLoop=1;jettySize=auto;html=1;" edge="1" parent="1" source="dEq93GOd6ZIklFoB2IPW-171" target="dEq93GOd6ZIklFoB2IPW-182">
          <mxGeometry relative="1" as="geometry" />
        </mxCell>
        <mxCell id="dEq93GOd6ZIklFoB2IPW-171" value="j &amp;lt; c1 ?" style="rhombus;whiteSpace=wrap;html=1;" vertex="1" parent="1">
          <mxGeometry x="2880" y="2184" width="80" height="80" as="geometry" />
        </mxCell>
        <mxCell id="dEq93GOd6ZIklFoB2IPW-178" value="" style="edgeStyle=orthogonalEdgeStyle;rounded=0;orthogonalLoop=1;jettySize=auto;html=1;" edge="1" parent="1" source="dEq93GOd6ZIklFoB2IPW-175" target="dEq93GOd6ZIklFoB2IPW-177">
          <mxGeometry relative="1" as="geometry" />
        </mxCell>
        <mxCell id="dEq93GOd6ZIklFoB2IPW-175" value="แสดงผลaary 1" style="shape=parallelogram;perimeter=parallelogramPerimeter;whiteSpace=wrap;html=1;fixedSize=1;" vertex="1" parent="1">
          <mxGeometry x="2860" y="2354" width="120" height="60" as="geometry" />
        </mxCell>
        <mxCell id="dEq93GOd6ZIklFoB2IPW-177" value="j++" style="whiteSpace=wrap;html=1;" vertex="1" parent="1">
          <mxGeometry x="2860" y="2494" width="120" height="60" as="geometry" />
        </mxCell>
        <mxCell id="dEq93GOd6ZIklFoB2IPW-179" value="" style="shape=waypoint;sketch=0;fillStyle=solid;size=6;pointerEvents=1;points=[];fillColor=none;resizable=0;rotatable=0;perimeter=centerPerimeter;snapToPoint=1;" vertex="1" parent="1">
          <mxGeometry x="2910" y="2134" width="20" height="20" as="geometry" />
        </mxCell>
        <mxCell id="dEq93GOd6ZIklFoB2IPW-180" style="edgeStyle=orthogonalEdgeStyle;rounded=0;orthogonalLoop=1;jettySize=auto;html=1;exitX=0.5;exitY=1;exitDx=0;exitDy=0;entryX=0.404;entryY=0.958;entryDx=0;entryDy=0;entryPerimeter=0;" edge="1" parent="1" source="dEq93GOd6ZIklFoB2IPW-177" target="dEq93GOd6ZIklFoB2IPW-179">
          <mxGeometry relative="1" as="geometry">
            <Array as="points">
              <mxPoint x="2920" y="2574" />
              <mxPoint x="2800" y="2574" />
              <mxPoint x="2800" y="2144" />
            </Array>
          </mxGeometry>
        </mxCell>
        <mxCell id="dEq93GOd6ZIklFoB2IPW-181" value="T" style="text;html=1;align=center;verticalAlign=middle;resizable=0;points=[];autosize=1;strokeColor=none;fillColor=none;" vertex="1" parent="1">
          <mxGeometry x="2885" y="2258" width="30" height="30" as="geometry" />
        </mxCell>
        <mxCell id="dEq93GOd6ZIklFoB2IPW-182" value="i++" style="whiteSpace=wrap;html=1;" vertex="1" parent="1">
          <mxGeometry x="3020" y="2194" width="120" height="60" as="geometry" />
        </mxCell>
        <mxCell id="dEq93GOd6ZIklFoB2IPW-186" value="" style="shape=waypoint;sketch=0;fillStyle=solid;size=6;pointerEvents=1;points=[];fillColor=none;resizable=0;rotatable=0;perimeter=centerPerimeter;snapToPoint=1;" vertex="1" parent="1">
          <mxGeometry x="2710" y="1778" width="20" height="20" as="geometry" />
        </mxCell>
        <mxCell id="dEq93GOd6ZIklFoB2IPW-187" style="edgeStyle=orthogonalEdgeStyle;rounded=0;orthogonalLoop=1;jettySize=auto;html=1;exitX=0.5;exitY=0;exitDx=0;exitDy=0;entryX=0.027;entryY=1.108;entryDx=0;entryDy=0;entryPerimeter=0;" edge="1" parent="1" source="dEq93GOd6ZIklFoB2IPW-182" target="dEq93GOd6ZIklFoB2IPW-186">
          <mxGeometry relative="1" as="geometry">
            <Array as="points">
              <mxPoint x="3080" y="1730" />
              <mxPoint x="2720" y="1730" />
            </Array>
          </mxGeometry>
        </mxCell>
        <mxCell id="dEq93GOd6ZIklFoB2IPW-192" value="" style="edgeStyle=orthogonalEdgeStyle;rounded=0;orthogonalLoop=1;jettySize=auto;html=1;" edge="1" parent="1" source="dEq93GOd6ZIklFoB2IPW-188" target="dEq93GOd6ZIklFoB2IPW-191">
          <mxGeometry relative="1" as="geometry" />
        </mxCell>
        <mxCell id="dEq93GOd6ZIklFoB2IPW-188" value="แสดงคำว่า Array2" style="shape=parallelogram;perimeter=parallelogramPerimeter;whiteSpace=wrap;html=1;fixedSize=1;" vertex="1" parent="1">
          <mxGeometry x="3150" y="1893" width="120" height="60" as="geometry" />
        </mxCell>
        <mxCell id="dEq93GOd6ZIklFoB2IPW-190" value="F" style="text;html=1;align=center;verticalAlign=middle;resizable=0;points=[];autosize=1;strokeColor=none;fillColor=none;" vertex="1" parent="1">
          <mxGeometry x="2965" y="1888" width="30" height="30" as="geometry" />
        </mxCell>
        <mxCell id="dEq93GOd6ZIklFoB2IPW-194" value="" style="edgeStyle=orthogonalEdgeStyle;rounded=0;orthogonalLoop=1;jettySize=auto;html=1;" edge="1" parent="1" source="dEq93GOd6ZIklFoB2IPW-191" target="dEq93GOd6ZIklFoB2IPW-193">
          <mxGeometry relative="1" as="geometry" />
        </mxCell>
        <mxCell id="dEq93GOd6ZIklFoB2IPW-191" value="int i = 0" style="whiteSpace=wrap;html=1;" vertex="1" parent="1">
          <mxGeometry x="3350" y="1893" width="120" height="60" as="geometry" />
        </mxCell>
        <mxCell id="dEq93GOd6ZIklFoB2IPW-196" value="" style="edgeStyle=orthogonalEdgeStyle;rounded=0;orthogonalLoop=1;jettySize=auto;html=1;" edge="1" parent="1" source="dEq93GOd6ZIklFoB2IPW-193" target="dEq93GOd6ZIklFoB2IPW-195">
          <mxGeometry relative="1" as="geometry" />
        </mxCell>
        <mxCell id="dEq93GOd6ZIklFoB2IPW-216" value="" style="edgeStyle=orthogonalEdgeStyle;rounded=0;orthogonalLoop=1;jettySize=auto;html=1;" edge="1" parent="1" source="dEq93GOd6ZIklFoB2IPW-193" target="dEq93GOd6ZIklFoB2IPW-215">
          <mxGeometry relative="1" as="geometry" />
        </mxCell>
        <mxCell id="dEq93GOd6ZIklFoB2IPW-193" value="i &amp;lt; r2 ?" style="rhombus;whiteSpace=wrap;html=1;" vertex="1" parent="1">
          <mxGeometry x="3370" y="2023" width="80" height="80" as="geometry" />
        </mxCell>
        <mxCell id="dEq93GOd6ZIklFoB2IPW-199" value="" style="edgeStyle=orthogonalEdgeStyle;rounded=0;orthogonalLoop=1;jettySize=auto;html=1;" edge="1" parent="1" source="dEq93GOd6ZIklFoB2IPW-195" target="dEq93GOd6ZIklFoB2IPW-198">
          <mxGeometry relative="1" as="geometry" />
        </mxCell>
        <mxCell id="dEq93GOd6ZIklFoB2IPW-195" value="int j = 0" style="whiteSpace=wrap;html=1;" vertex="1" parent="1">
          <mxGeometry x="3350" y="2193" width="120" height="60" as="geometry" />
        </mxCell>
        <mxCell id="dEq93GOd6ZIklFoB2IPW-197" value="T" style="text;html=1;align=center;verticalAlign=middle;resizable=0;points=[];autosize=1;strokeColor=none;fillColor=none;" vertex="1" parent="1">
          <mxGeometry x="3365" y="2098" width="30" height="30" as="geometry" />
        </mxCell>
        <mxCell id="dEq93GOd6ZIklFoB2IPW-201" value="" style="edgeStyle=orthogonalEdgeStyle;rounded=0;orthogonalLoop=1;jettySize=auto;html=1;" edge="1" parent="1" source="dEq93GOd6ZIklFoB2IPW-198" target="dEq93GOd6ZIklFoB2IPW-200">
          <mxGeometry relative="1" as="geometry" />
        </mxCell>
        <mxCell id="dEq93GOd6ZIklFoB2IPW-209" value="" style="edgeStyle=orthogonalEdgeStyle;rounded=0;orthogonalLoop=1;jettySize=auto;html=1;" edge="1" parent="1" source="dEq93GOd6ZIklFoB2IPW-198" target="dEq93GOd6ZIklFoB2IPW-208">
          <mxGeometry relative="1" as="geometry" />
        </mxCell>
        <mxCell id="dEq93GOd6ZIklFoB2IPW-198" value="j &amp;lt; c2 ?" style="rhombus;whiteSpace=wrap;html=1;" vertex="1" parent="1">
          <mxGeometry x="3370" y="2323" width="80" height="80" as="geometry" />
        </mxCell>
        <mxCell id="dEq93GOd6ZIklFoB2IPW-203" value="" style="edgeStyle=orthogonalEdgeStyle;rounded=0;orthogonalLoop=1;jettySize=auto;html=1;" edge="1" parent="1" source="dEq93GOd6ZIklFoB2IPW-200" target="dEq93GOd6ZIklFoB2IPW-202">
          <mxGeometry relative="1" as="geometry" />
        </mxCell>
        <mxCell id="dEq93GOd6ZIklFoB2IPW-200" value="แสดงผล Array2" style="shape=parallelogram;perimeter=parallelogramPerimeter;whiteSpace=wrap;html=1;fixedSize=1;" vertex="1" parent="1">
          <mxGeometry x="3350" y="2493" width="120" height="60" as="geometry" />
        </mxCell>
        <mxCell id="dEq93GOd6ZIklFoB2IPW-205" style="edgeStyle=orthogonalEdgeStyle;rounded=0;orthogonalLoop=1;jettySize=auto;html=1;exitX=0.5;exitY=1;exitDx=0;exitDy=0;" edge="1" parent="1" source="dEq93GOd6ZIklFoB2IPW-202" target="dEq93GOd6ZIklFoB2IPW-204">
          <mxGeometry relative="1" as="geometry">
            <Array as="points">
              <mxPoint x="3410" y="2713" />
              <mxPoint x="3300" y="2713" />
              <mxPoint x="3300" y="2278" />
            </Array>
          </mxGeometry>
        </mxCell>
        <mxCell id="dEq93GOd6ZIklFoB2IPW-202" value="j++" style="whiteSpace=wrap;html=1;" vertex="1" parent="1">
          <mxGeometry x="3350" y="2633" width="120" height="60" as="geometry" />
        </mxCell>
        <mxCell id="dEq93GOd6ZIklFoB2IPW-204" value="" style="shape=waypoint;sketch=0;fillStyle=solid;size=6;pointerEvents=1;points=[];fillColor=none;resizable=0;rotatable=0;perimeter=centerPerimeter;snapToPoint=1;" vertex="1" parent="1">
          <mxGeometry x="3400" y="2268" width="20" height="20" as="geometry" />
        </mxCell>
        <mxCell id="dEq93GOd6ZIklFoB2IPW-207" value="T" style="text;html=1;align=center;verticalAlign=middle;resizable=0;points=[];autosize=1;strokeColor=none;fillColor=none;" vertex="1" parent="1">
          <mxGeometry x="3355" y="2388" width="30" height="30" as="geometry" />
        </mxCell>
        <mxCell id="dEq93GOd6ZIklFoB2IPW-212" style="edgeStyle=orthogonalEdgeStyle;rounded=0;orthogonalLoop=1;jettySize=auto;html=1;exitX=0.5;exitY=0;exitDx=0;exitDy=0;" edge="1" parent="1" source="dEq93GOd6ZIklFoB2IPW-208" target="dEq93GOd6ZIklFoB2IPW-211">
          <mxGeometry relative="1" as="geometry">
            <Array as="points">
              <mxPoint x="3570" y="1978" />
            </Array>
          </mxGeometry>
        </mxCell>
        <mxCell id="dEq93GOd6ZIklFoB2IPW-208" value="i++" style="whiteSpace=wrap;html=1;" vertex="1" parent="1">
          <mxGeometry x="3510" y="2333" width="120" height="60" as="geometry" />
        </mxCell>
        <mxCell id="dEq93GOd6ZIklFoB2IPW-210" value="F" style="text;html=1;align=center;verticalAlign=middle;resizable=0;points=[];autosize=1;strokeColor=none;fillColor=none;" vertex="1" parent="1">
          <mxGeometry x="3435" y="2318" width="30" height="30" as="geometry" />
        </mxCell>
        <mxCell id="dEq93GOd6ZIklFoB2IPW-211" value="" style="shape=waypoint;sketch=0;fillStyle=solid;size=6;pointerEvents=1;points=[];fillColor=none;resizable=0;rotatable=0;perimeter=centerPerimeter;snapToPoint=1;" vertex="1" parent="1">
          <mxGeometry x="3400" y="1968" width="20" height="20" as="geometry" />
        </mxCell>
        <mxCell id="dEq93GOd6ZIklFoB2IPW-218" value="" style="edgeStyle=orthogonalEdgeStyle;rounded=0;orthogonalLoop=1;jettySize=auto;html=1;" edge="1" parent="1" source="dEq93GOd6ZIklFoB2IPW-215" target="dEq93GOd6ZIklFoB2IPW-217">
          <mxGeometry relative="1" as="geometry" />
        </mxCell>
        <mxCell id="dEq93GOd6ZIklFoB2IPW-215" value="แสดงคำว่า Array1 x Array2" style="shape=parallelogram;perimeter=parallelogramPerimeter;whiteSpace=wrap;html=1;fixedSize=1;" vertex="1" parent="1">
          <mxGeometry x="3730" y="2033" width="190" height="60" as="geometry" />
        </mxCell>
        <mxCell id="dEq93GOd6ZIklFoB2IPW-220" value="" style="edgeStyle=orthogonalEdgeStyle;rounded=0;orthogonalLoop=1;jettySize=auto;html=1;" edge="1" parent="1" source="dEq93GOd6ZIklFoB2IPW-217" target="dEq93GOd6ZIklFoB2IPW-219">
          <mxGeometry relative="1" as="geometry" />
        </mxCell>
        <mxCell id="dEq93GOd6ZIklFoB2IPW-217" value="int i = 0" style="whiteSpace=wrap;html=1;" vertex="1" parent="1">
          <mxGeometry x="3765" y="2173" width="120" height="60" as="geometry" />
        </mxCell>
        <mxCell id="dEq93GOd6ZIklFoB2IPW-222" value="" style="edgeStyle=orthogonalEdgeStyle;rounded=0;orthogonalLoop=1;jettySize=auto;html=1;" edge="1" parent="1" source="dEq93GOd6ZIklFoB2IPW-219" target="dEq93GOd6ZIklFoB2IPW-221">
          <mxGeometry relative="1" as="geometry" />
        </mxCell>
        <mxCell id="dEq93GOd6ZIklFoB2IPW-239" value="" style="edgeStyle=orthogonalEdgeStyle;rounded=0;orthogonalLoop=1;jettySize=auto;html=1;" edge="1" parent="1" source="dEq93GOd6ZIklFoB2IPW-219" target="dEq93GOd6ZIklFoB2IPW-238">
          <mxGeometry relative="1" as="geometry" />
        </mxCell>
        <mxCell id="dEq93GOd6ZIklFoB2IPW-219" value="i &amp;lt; r1 ?" style="rhombus;whiteSpace=wrap;html=1;" vertex="1" parent="1">
          <mxGeometry x="3785" y="2430" width="80" height="80" as="geometry" />
        </mxCell>
        <mxCell id="dEq93GOd6ZIklFoB2IPW-225" value="" style="edgeStyle=orthogonalEdgeStyle;rounded=0;orthogonalLoop=1;jettySize=auto;html=1;" edge="1" parent="1" source="dEq93GOd6ZIklFoB2IPW-221" target="dEq93GOd6ZIklFoB2IPW-224">
          <mxGeometry relative="1" as="geometry" />
        </mxCell>
        <mxCell id="dEq93GOd6ZIklFoB2IPW-221" value="int j = 0" style="whiteSpace=wrap;html=1;" vertex="1" parent="1">
          <mxGeometry x="3765" y="2600" width="120" height="60" as="geometry" />
        </mxCell>
        <mxCell id="dEq93GOd6ZIklFoB2IPW-223" value="T" style="text;html=1;align=center;verticalAlign=middle;resizable=0;points=[];autosize=1;strokeColor=none;fillColor=none;" vertex="1" parent="1">
          <mxGeometry x="3850" y="2508" width="30" height="30" as="geometry" />
        </mxCell>
        <mxCell id="dEq93GOd6ZIklFoB2IPW-227" value="" style="edgeStyle=orthogonalEdgeStyle;rounded=0;orthogonalLoop=1;jettySize=auto;html=1;" edge="1" parent="1" source="dEq93GOd6ZIklFoB2IPW-224" target="dEq93GOd6ZIklFoB2IPW-226">
          <mxGeometry relative="1" as="geometry" />
        </mxCell>
        <mxCell id="dEq93GOd6ZIklFoB2IPW-234" value="" style="edgeStyle=orthogonalEdgeStyle;rounded=0;orthogonalLoop=1;jettySize=auto;html=1;" edge="1" parent="1" source="dEq93GOd6ZIklFoB2IPW-224" target="dEq93GOd6ZIklFoB2IPW-233">
          <mxGeometry relative="1" as="geometry" />
        </mxCell>
        <mxCell id="dEq93GOd6ZIklFoB2IPW-224" value="j &amp;lt; c2 ?" style="rhombus;whiteSpace=wrap;html=1;" vertex="1" parent="1">
          <mxGeometry x="3785" y="2730" width="80" height="80" as="geometry" />
        </mxCell>
        <mxCell id="dEq93GOd6ZIklFoB2IPW-230" value="" style="edgeStyle=orthogonalEdgeStyle;rounded=0;orthogonalLoop=1;jettySize=auto;html=1;" edge="1" parent="1" source="dEq93GOd6ZIklFoB2IPW-226" target="dEq93GOd6ZIklFoB2IPW-229">
          <mxGeometry relative="1" as="geometry" />
        </mxCell>
        <mxCell id="dEq93GOd6ZIklFoB2IPW-226" value="แสดงผลลัพธ์" style="shape=parallelogram;perimeter=parallelogramPerimeter;whiteSpace=wrap;html=1;fixedSize=1;" vertex="1" parent="1">
          <mxGeometry x="3765" y="2900" width="120" height="60" as="geometry" />
        </mxCell>
        <mxCell id="dEq93GOd6ZIklFoB2IPW-228" value="T" style="text;html=1;align=center;verticalAlign=middle;resizable=0;points=[];autosize=1;strokeColor=none;fillColor=none;" vertex="1" parent="1">
          <mxGeometry x="3775" y="2808" width="30" height="30" as="geometry" />
        </mxCell>
        <mxCell id="dEq93GOd6ZIklFoB2IPW-229" value="j++" style="shape=parallelogram;perimeter=parallelogramPerimeter;whiteSpace=wrap;html=1;fixedSize=1;" vertex="1" parent="1">
          <mxGeometry x="3765" y="3040" width="120" height="60" as="geometry" />
        </mxCell>
        <mxCell id="dEq93GOd6ZIklFoB2IPW-231" value="" style="shape=waypoint;sketch=0;fillStyle=solid;size=6;pointerEvents=1;points=[];fillColor=none;resizable=0;rotatable=0;perimeter=centerPerimeter;snapToPoint=1;" vertex="1" parent="1">
          <mxGeometry x="3815" y="2680" width="20" height="20" as="geometry" />
        </mxCell>
        <mxCell id="dEq93GOd6ZIklFoB2IPW-232" style="edgeStyle=orthogonalEdgeStyle;rounded=0;orthogonalLoop=1;jettySize=auto;html=1;exitX=0.5;exitY=1;exitDx=0;exitDy=0;entryX=0.244;entryY=0.089;entryDx=0;entryDy=0;entryPerimeter=0;" edge="1" parent="1" source="dEq93GOd6ZIklFoB2IPW-229" target="dEq93GOd6ZIklFoB2IPW-231">
          <mxGeometry relative="1" as="geometry">
            <Array as="points">
              <mxPoint x="3825" y="3120" />
              <mxPoint x="3660" y="3120" />
              <mxPoint x="3660" y="2690" />
            </Array>
          </mxGeometry>
        </mxCell>
        <mxCell id="dEq93GOd6ZIklFoB2IPW-233" value="i++" style="whiteSpace=wrap;html=1;" vertex="1" parent="1">
          <mxGeometry x="3925" y="2740" width="120" height="60" as="geometry" />
        </mxCell>
        <mxCell id="dEq93GOd6ZIklFoB2IPW-235" value="F" style="text;html=1;align=center;verticalAlign=middle;resizable=0;points=[];autosize=1;strokeColor=none;fillColor=none;" vertex="1" parent="1">
          <mxGeometry x="3845" y="2728" width="30" height="30" as="geometry" />
        </mxCell>
        <mxCell id="dEq93GOd6ZIklFoB2IPW-236" value="" style="shape=waypoint;sketch=0;fillStyle=solid;size=6;pointerEvents=1;points=[];fillColor=none;resizable=0;rotatable=0;perimeter=centerPerimeter;snapToPoint=1;" vertex="1" parent="1">
          <mxGeometry x="3815" y="2258" width="20" height="20" as="geometry" />
        </mxCell>
        <mxCell id="dEq93GOd6ZIklFoB2IPW-237" style="edgeStyle=orthogonalEdgeStyle;rounded=0;orthogonalLoop=1;jettySize=auto;html=1;exitX=0.5;exitY=0;exitDx=0;exitDy=0;entryX=0.3;entryY=0.856;entryDx=0;entryDy=0;entryPerimeter=0;" edge="1" parent="1" source="dEq93GOd6ZIklFoB2IPW-233" target="dEq93GOd6ZIklFoB2IPW-236">
          <mxGeometry relative="1" as="geometry">
            <Array as="points">
              <mxPoint x="3985" y="2268" />
            </Array>
          </mxGeometry>
        </mxCell>
        <mxCell id="dEq93GOd6ZIklFoB2IPW-242" style="edgeStyle=orthogonalEdgeStyle;rounded=0;orthogonalLoop=1;jettySize=auto;html=1;exitX=0.5;exitY=1;exitDx=0;exitDy=0;entryX=0.5;entryY=0;entryDx=0;entryDy=0;" edge="1" parent="1" source="dEq93GOd6ZIklFoB2IPW-238" target="dEq93GOd6ZIklFoB2IPW-241">
          <mxGeometry relative="1" as="geometry" />
        </mxCell>
        <mxCell id="dEq93GOd6ZIklFoB2IPW-238" value="printf( &quot;\n&quot; )&amp;nbsp;" style="shape=parallelogram;perimeter=parallelogramPerimeter;whiteSpace=wrap;html=1;fixedSize=1;" vertex="1" parent="1">
          <mxGeometry x="3490" y="3120" width="120" height="60" as="geometry" />
        </mxCell>
        <mxCell id="dEq93GOd6ZIklFoB2IPW-240" value="F" style="text;html=1;align=center;verticalAlign=middle;resizable=0;points=[];autosize=1;strokeColor=none;fillColor=none;" vertex="1" parent="1">
          <mxGeometry x="3745" y="2428" width="30" height="30" as="geometry" />
        </mxCell>
        <mxCell id="dEq93GOd6ZIklFoB2IPW-241" value="end" style="ellipse;whiteSpace=wrap;html=1;" vertex="1" parent="1">
          <mxGeometry x="3490" y="3310" width="120" height="80" as="geometry" />
        </mxCell>
      </root>
    </mxGraphModel>
  </diagram>
</mxfile>
